{
	"asset":{
		"generator":"Khronos glTF Blender I/O v4.4.56",
		"version":"2.0"
	},
	"scene":0,
	"scenes":[
		{
			"name":"Scene",
			"nodes":[
				0
			]
		}
	],
	"nodes":[
		{
			"mesh":0,
			"name":"Plane.033_Baked",
			"rotation":[
				0.7071068286895752,
				0,
				0,
				0.7071068286895752
			],
			"translation":[
				-12.04727840423584,
				9.931629180908203,
				-5.04273796081543
			]
		}
	],
	"materials":[
		{
			"alphaMode":"BLEND",
			"doubleSided":true,
			"name":"Plane.033_Baked.1001",
			"pbrMetallicRoughness":{
				"baseColorTexture":{
					"index":0
				},
				"metallicFactor":0,
				"roughnessFactor":0.5
			}
		},
		{
			"alphaMode":"BLEND",
			"doubleSided":true,
			"name":"Plane.033_Baked.1002",
			"pbrMetallicRoughness":{
				"baseColorTexture":{
					"index":1
				},
				"metallicFactor":0,
				"roughnessFactor":0.5
			}
		}
	],
	"meshes":[
		{
			"name":"Plane.010",
			"primitives":[
				{
					"attributes":{
						"POSITION":0,
						"NORMAL":1,
						"TEXCOORD_0":2
					},
					"indices":3,
					"material":0
				},
				{
					"attributes":{
						"POSITION":4,
						"NORMAL":5,
						"TEXCOORD_0":6
					},
					"indices":7,
					"material":1
				}
			]
		}
	],
	"textures":[
		{
			"sampler":0,
			"source":0
		},
		{
			"sampler":0,
			"source":1
		}
	],
	"images":[
		{
			"mimeType":"image/png",
			"name":"Plane",
			"uri":"Plane.png"
		},
		{
			"mimeType":"image/png",
			"name":"Plane",
			"uri":"Plane-1.png"
		}
	],
	"accessors":[
		{
			"bufferView":0,
			"componentType":5126,
			"count":24581,
			"max":[
				4.667266845703125,
				1.027369499206543,
				7.682180881500244
			],
			"min":[
				-4.572893142700195,
				-0.4425610899925232,
				-5.466291904449463
			],
			"type":"VEC3"
		},
		{
			"bufferView":1,
			"componentType":5126,
			"count":24581,
			"type":"VEC3"
		},
		{
			"bufferView":2,
			"componentType":5126,
			"count":24581,
			"type":"VEC2"
		},
		{
			"bufferView":3,
			"componentType":5123,
			"count":95850,
			"type":"SCALAR"
		},
		{
			"bufferView":4,
			"componentType":5126,
			"count":88,
			"max":[
				4.233909606933594,
				0.24496185779571533,
				-5.194138050079346
			],
			"min":[
				2.867997646331787,
				-0.02996845543384552,
				-5.37730073928833
			],
			"type":"VEC3"
		},
		{
			"bufferView":5,
			"componentType":5126,
			"count":88,
			"type":"VEC3"
		},
		{
			"bufferView":6,
			"componentType":5126,
			"count":88,
			"type":"VEC2"
		},
		{
			"bufferView":7,
			"componentType":5123,
			"count":132,
			"type":"SCALAR"
		}
	],
	"bufferViews":[
		{
			"buffer":0,
			"byteLength":294972,
			"byteOffset":0,
			"target":34962
		},
		{
			"buffer":0,
			"byteLength":294972,
			"byteOffset":294972,
			"target":34962
		},
		{
			"buffer":0,
			"byteLength":196648,
			"byteOffset":589944,
			"target":34962
		},
		{
			"buffer":0,
			"byteLength":191700,
			"byteOffset":786592,
			"target":34963
		},
		{
			"buffer":0,
			"byteLength":1056,
			"byteOffset":978292,
			"target":34962
		},
		{
			"buffer":0,
			"byteLength":1056,
			"byteOffset":979348,
			"target":34962
		},
		{
			"buffer":0,
			"byteLength":704,
			"byteOffset":980404,
			"target":34962
		},
		{
			"buffer":0,
			"byteLength":264,
			"byteOffset":981108,
			"target":34963
		}
	],
	"samplers":[
		{
			"magFilter":9729,
			"minFilter":9987
		}
	],
	"buffers":[
		{
			"byteLength":981372,
			"uri":"curtain.bin"
		}
	]
}
