{
	"asset":{
		"generator":"Khronos glTF Blender I/O v4.4.56",
		"version":"2.0"
	},
	"scene":0,
	"scenes":[
		{
			"name":"Scene",
			"nodes":[
				0
			]
		}
	],
	"nodes":[
		{
			"mesh":0,
			"name":"Plane.033_Baked"
		}
	],
	"materials":[
		{
			"alphaMode":"BLEND",
			"doubleSided":true,
			"name":"Plane.033_Baked.005.1001",
			"pbrMetallicRoughness":{
				"baseColorTexture":{
					"index":0
				},
				"metallicFactor":0,
				"roughnessFactor":0.5
			}
		},
		{
			"alphaMode":"BLEND",
			"doubleSided":true,
			"name":"Plane.033_Baked.005.1002",
			"pbrMetallicRoughness":{
				"baseColorTexture":{
					"index":1
				},
				"metallicFactor":0,
				"roughnessFactor":0.5
			}
		}
	],
	"meshes":[
		{
			"name":"Plane.013",
			"primitives":[
				{
					"attributes":{
						"POSITION":0,
						"NORMAL":1,
						"TEXCOORD_0":2
					},
					"indices":3,
					"material":0
				},
				{
					"attributes":{
						"POSITION":4,
						"NORMAL":5,
						"TEXCOORD_0":6
					},
					"indices":7,
					"material":1
				}
			]
		}
	],
	"textures":[
		{
			"sampler":0,
			"source":0
		},
		{
			"sampler":0,
			"source":1
		}
	],
	"images":[
		{
			"mimeType":"image/png",
			"name":"Plane",
			"uri":"textures/Plane.png"
		},
		{
			"mimeType":"image/png",
			"name":"Plane",
			"uri":"textures/Plane-1.png"
		}
	],
	"accessors":[
		{
			"bufferView":0,
			"componentType":5126,
			"count":18005,
			"max":[
				-7.3805036544799805,
				15.397920608520508,
				-4.058286666870117
			],
			"min":[
				-16.62017059326172,
				2.2497801780700684,
				-5.484725475311279
			],
			"type":"VEC3"
		},
		{
			"bufferView":1,
			"componentType":5126,
			"count":18005,
			"type":"VEC3"
		},
		{
			"bufferView":2,
			"componentType":5126,
			"count":18005,
			"type":"VEC2"
		},
		{
			"bufferView":3,
			"componentType":5123,
			"count":54186,
			"type":"SCALAR"
		},
		{
			"bufferView":4,
			"componentType":5126,
			"count":88,
			"max":[
				-7.813368797302246,
				15.308929443359375,
				-4.840692043304443
			],
			"min":[
				-9.179281234741211,
				15.12576675415039,
				-5.115622520446777
			],
			"type":"VEC3"
		},
		{
			"bufferView":5,
			"componentType":5126,
			"count":88,
			"type":"VEC3"
		},
		{
			"bufferView":6,
			"componentType":5126,
			"count":88,
			"type":"VEC2"
		},
		{
			"bufferView":7,
			"componentType":5123,
			"count":132,
			"type":"SCALAR"
		}
	],
	"bufferViews":[
		{
			"buffer":0,
			"byteLength":216060,
			"byteOffset":0,
			"target":34962
		},
		{
			"buffer":0,
			"byteLength":216060,
			"byteOffset":216060,
			"target":34962
		},
		{
			"buffer":0,
			"byteLength":144040,
			"byteOffset":432120,
			"target":34962
		},
		{
			"buffer":0,
			"byteLength":108372,
			"byteOffset":576160,
			"target":34963
		},
		{
			"buffer":0,
			"byteLength":1056,
			"byteOffset":684532,
			"target":34962
		},
		{
			"buffer":0,
			"byteLength":1056,
			"byteOffset":685588,
			"target":34962
		},
		{
			"buffer":0,
			"byteLength":704,
			"byteOffset":686644,
			"target":34962
		},
		{
			"buffer":0,
			"byteLength":264,
			"byteOffset":687348,
			"target":34963
		}
	],
	"samplers":[
		{
			"magFilter":9729,
			"minFilter":9987
		}
	],
	"buffers":[
		{
			"byteLength":687612,
			"uri":"curtains.bin"
		}
	]
}
