{
	"asset":{
		"generator":"Khronos glTF Blender I/O v4.4.56",
		"version":"2.0"
	},
	"scene":0,
	"scenes":[
		{
			"name":"Scene",
			"nodes":[
				0
			]
		}
	],
	"nodes":[
		{
			"mesh":0,
			"name":"tatami_Baked",
			"translation":[
				-6.467938423156738,
				0.06904271990060806,
				0
			]
		}
	],
	"materials":[
		{
			"doubleSided":true,
			"name":"tatami_Baked.1001",
			"pbrMetallicRoughness":{
				"baseColorTexture":{
					"index":0
				},
				"metallicFactor":0,
				"roughnessFactor":0.5
			}
		},
		{
			"doubleSided":true,
			"name":"tatami_Baked.1011",
			"pbrMetallicRoughness":{
				"baseColorTexture":{
					"index":1
				},
				"metallicFactor":0,
				"roughnessFactor":0.5
			}
		}
	],
	"meshes":[
		{
			"name":"Plane.001",
			"primitives":[
				{
					"attributes":{
						"POSITION":0,
						"NORMAL":1,
						"TEXCOORD_0":2
					},
					"indices":3,
					"material":0
				},
				{
					"attributes":{
						"POSITION":4,
						"NORMAL":5,
						"TEXCOORD_0":6
					},
					"indices":7,
					"material":1
				}
			]
		}
	],
	"textures":[
		{
			"sampler":0,
			"source":0
		},
		{
			"sampler":0,
			"source":1
		}
	],
	"images":[
		{
			"mimeType":"image/png",
			"name":"tatami_Bake1_PBR_Diffuse.1001",
			"uri":"tatami_Bake1_PBR_Diffuse_1001.png"
		},
		{
			"mimeType":"image/png",
			"name":"tatami_Bake1_PBR_Diffuse.1011",
			"uri":"tatami_Bake1_PBR_Diffuse_1011.png"
		}
	],
	"accessors":[
		{
			"bufferView":0,
			"componentType":5126,
			"count":12605,
			"max":[
				9.58562183380127,
				7.541891574859619,
				14.006900787353516
			],
			"min":[
				-4.601977348327637,
				-0.18932253122329712,
				-1.8873933553695679
			],
			"type":"VEC3"
		},
		{
			"bufferView":1,
			"componentType":5126,
			"count":12605,
			"type":"VEC3"
		},
		{
			"bufferView":2,
			"componentType":5126,
			"count":12605,
			"type":"VEC2"
		},
		{
			"bufferView":3,
			"componentType":5123,
			"count":36777,
			"type":"SCALAR"
		},
		{
			"bufferView":4,
			"componentType":5126,
			"count":4,
			"max":[
				2.5865039825439453,
				3.2854018211364746,
				1.208313226699829
			],
			"min":[
				2.4948911666870117,
				3.252685308456421,
				1.1178696155548096
			],
			"type":"VEC3"
		},
		{
			"bufferView":5,
			"componentType":5126,
			"count":4,
			"type":"VEC3"
		},
		{
			"bufferView":6,
			"componentType":5126,
			"count":4,
			"type":"VEC2"
		},
		{
			"bufferView":7,
			"componentType":5123,
			"count":6,
			"type":"SCALAR"
		}
	],
	"bufferViews":[
		{
			"buffer":0,
			"byteLength":151260,
			"byteOffset":0,
			"target":34962
		},
		{
			"buffer":0,
			"byteLength":151260,
			"byteOffset":151260,
			"target":34962
		},
		{
			"buffer":0,
			"byteLength":100840,
			"byteOffset":302520,
			"target":34962
		},
		{
			"buffer":0,
			"byteLength":73554,
			"byteOffset":403360,
			"target":34963
		},
		{
			"buffer":0,
			"byteLength":48,
			"byteOffset":476916,
			"target":34962
		},
		{
			"buffer":0,
			"byteLength":48,
			"byteOffset":476964,
			"target":34962
		},
		{
			"buffer":0,
			"byteLength":32,
			"byteOffset":477012,
			"target":34962
		},
		{
			"buffer":0,
			"byteLength":12,
			"byteOffset":477044,
			"target":34963
		}
	],
	"samplers":[
		{
			"magFilter":9729,
			"minFilter":9987
		}
	],
	"buffers":[
		{
			"byteLength":477056,
			"uri":"chair.bin"
		}
	]
}
