{
	"asset":{
		"generator":"Khronos glTF Blender I/O v4.1.63",
		"version":"2.0"
	},
	"scene":0,
	"scenes":[
		{
			"name":"Scene",
			"nodes":[
				0
			]
		}
	],
	"nodes":[
		{
			"mesh":0,
			"name":"left_wall",
			"rotation":[
				0.5,
				0.5,
				-0.5,
				0.5
			],
			"translation":[
				-17.109342575073242,
				9.17234992980957,
				1.5954978466033936
			]
		}
	],
	"materials":[
		{
			"alphaMode":"BLEND",
			"doubleSided":true,
			"emissiveFactor":[
				1,
				1,
				1
			],
			"emissiveTexture":{
				"index":0
			},
			"name":"board_Baked",
			"pbrMetallicRoughness":{
				"baseColorTexture":{
					"index":1
				},
				"metallicFactor":0,
				"roughnessFactor":0.5
			}
		}
	],
	"meshes":[
		{
			"name":"Plane.007",
			"primitives":[
				{
					"attributes":{
						"POSITION":0,
						"NORMAL":1,
						"TEXCOORD_0":2
					},
					"indices":3,
					"material":0
				}
			]
		}
	],
	"textures":[
		{
			"sampler":0,
			"source":0
		},
		{
			"sampler":0,
			"source":1
		}
	],
	"images":[
		{
			"mimeType":"image/png",
			"name":"board_Bake1_PBR_Emission_map",
			"uri":"board_Bake1_PBR_Emission_map.png"
		},
		{
			"mimeType":"image/png",
			"name":"board_Bake1_PBR_Diffuse",
			"uri":"board_Bake1_PBR_Diffuse.png"
		}
	],
	"accessors":[
		{
			"bufferView":0,
			"componentType":5126,
			"count":29471,
			"max":[
				4.472594738006592,
				1.2542870044708252,
				6.585474014282227
			],
			"min":[
				-11.571197509765625,
				-0.19810664653778076,
				-6.208524703979492
			],
			"type":"VEC3"
		},
		{
			"bufferView":1,
			"componentType":5126,
			"count":29471,
			"type":"VEC3"
		},
		{
			"bufferView":2,
			"componentType":5126,
			"count":29471,
			"type":"VEC2"
		},
		{
			"bufferView":3,
			"componentType":5123,
			"count":68916,
			"type":"SCALAR"
		}
	],
	"bufferViews":[
		{
			"buffer":0,
			"byteLength":353652,
			"byteOffset":0,
			"target":34962
		},
		{
			"buffer":0,
			"byteLength":353652,
			"byteOffset":353652,
			"target":34962
		},
		{
			"buffer":0,
			"byteLength":235768,
			"byteOffset":707304,
			"target":34962
		},
		{
			"buffer":0,
			"byteLength":137832,
			"byteOffset":943072,
			"target":34963
		}
	],
	"samplers":[
		{
			"magFilter":9729,
			"minFilter":9987
		}
	],
	"buffers":[
		{
			"byteLength":1080904,
			"uri":"left_wall.bin"
		}
	]
}
