{
	"asset":{
		"generator":"Khronos glTF Blender I/O v4.4.56",
		"version":"2.0"
	},
	"scene":0,
	"scenes":[
		{
			"name":"Scene",
			"nodes":[
				0
			]
		}
	],
	"nodes":[
		{
			"mesh":0,
			"name":"bed_Baked",
			"rotation":[
				0.5,
				0.5,
				-0.5,
				0.5000000596046448
			],
			"translation":[
				-17.82331657409668,
				0,
				-4.845983505249023
			]
		}
	],
	"materials":[
		{
			"doubleSided":true,
			"name":"bed_Baked.1001",
			"pbrMetallicRoughness":{
				"baseColorTexture":{
					"index":0
				},
				"metallicFactor":0,
				"roughnessFactor":0.5
			}
		}
	],
	"meshes":[
		{
			"name":"Room.001",
			"primitives":[
				{
					"attributes":{
						"POSITION":0,
						"NORMAL":1,
						"TEXCOORD_0":2
					},
					"indices":3,
					"material":0
				}
			]
		}
	],
	"textures":[
		{
			"sampler":0,
			"source":0
		}
	],
	"images":[
		{
			"mimeType":"image/png",
			"name":"bed_Bake1_PBR_Diffuse",
			"uri":"bed_Bake1_PBR_Diffuse.png"
		}
	],
	"accessors":[
		{
			"bufferView":0,
			"componentType":5126,
			"count":15342,
			"max":[
				-0.02426588535308838,
				9.376480102539062,
				-0.04431675001978874
			],
			"min":[
				-13.914108276367188,
				0.47150135040283203,
				-5.2321977615356445
			],
			"type":"VEC3"
		},
		{
			"bufferView":1,
			"componentType":5126,
			"count":15342,
			"type":"VEC3"
		},
		{
			"bufferView":2,
			"componentType":5126,
			"count":15342,
			"type":"VEC2"
		},
		{
			"bufferView":3,
			"componentType":5123,
			"count":29670,
			"type":"SCALAR"
		}
	],
	"bufferViews":[
		{
			"buffer":0,
			"byteLength":184104,
			"byteOffset":0,
			"target":34962
		},
		{
			"buffer":0,
			"byteLength":184104,
			"byteOffset":184104,
			"target":34962
		},
		{
			"buffer":0,
			"byteLength":122736,
			"byteOffset":368208,
			"target":34962
		},
		{
			"buffer":0,
			"byteLength":59340,
			"byteOffset":490944,
			"target":34963
		}
	],
	"samplers":[
		{
			"magFilter":9729,
			"minFilter":9987
		}
	],
	"buffers":[
		{
			"byteLength":550284,
			"uri":"bed.bin"
		}
	]
}
