{
	"asset":{
		"generator":"Khronos glTF Blender I/O v4.1.63",
		"version":"2.0"
	},
	"scene":0,
	"scenes":[
		{
			"name":"Scene",
			"nodes":[
				0
			]
		}
	],
	"nodes":[
		{
			"mesh":0,
			"name":"desk"
		}
	],
	"materials":[
		{
			"doubleSided":true,
			"emissiveFactor":[
				1,
				1,
				1
			],
			"emissiveTexture":{
				"index":0
			},
			"name":"Speaker.001_Baked.002",
			"pbrMetallicRoughness":{
				"baseColorTexture":{
					"index":1
				},
				"metallicFactor":0,
				"roughnessFactor":0.5
			}
		}
	],
	"meshes":[
		{
			"name":"Circle.005",
			"primitives":[
				{
					"attributes":{
						"POSITION":0,
						"NORMAL":1,
						"TEXCOORD_0":2
					},
					"indices":3,
					"material":0
				}
			]
		}
	],
	"textures":[
		{
			"sampler":0,
			"source":0
		},
		{
			"sampler":0,
			"source":1
		}
	],
	"images":[
		{
			"mimeType":"image/png",
			"name":"desk_emission",
			"uri":"textures/desk_emission.png"
		},
		{
			"mimeType":"image/png",
			"name":"desk_diffuse",
			"uri":"textures/desk_diffuse.png"
		}
	],
	"accessors":[
		{
			"bufferView":0,
			"componentType":5126,
			"count":151756,
			"max":[
				4.278123378753662,
				13.731282234191895,
				-1.3282134532928467
			],
			"min":[
				-7.531401634216309,
				0.058145225048065186,
				-5.087574481964111
			],
			"type":"VEC3"
		},
		{
			"bufferView":1,
			"componentType":5126,
			"count":151756,
			"type":"VEC3"
		},
		{
			"bufferView":2,
			"componentType":5126,
			"count":151756,
			"type":"VEC2"
		},
		{
			"bufferView":3,
			"componentType":5125,
			"count":421416,
			"type":"SCALAR"
		}
	],
	"bufferViews":[
		{
			"buffer":0,
			"byteLength":1821072,
			"byteOffset":0,
			"target":34962
		},
		{
			"buffer":0,
			"byteLength":1821072,
			"byteOffset":1821072,
			"target":34962
		},
		{
			"buffer":0,
			"byteLength":1214048,
			"byteOffset":3642144,
			"target":34962
		},
		{
			"buffer":0,
			"byteLength":1685664,
			"byteOffset":4856192,
			"target":34963
		}
	],
	"samplers":[
		{
			"magFilter":9729,
			"minFilter":9987
		}
	],
	"buffers":[
		{
			"byteLength":6541856,
			"uri":"desk.bin"
		}
	]
}
