{
	"asset":{
		"generator":"Khronos glTF Blender I/O v4.4.56",
		"version":"2.0"
	},
	"scene":0,
	"scenes":[
		{
			"name":"Scene",
			"nodes":[
				0
			]
		}
	],
	"nodes":[
		{
			"mesh":0,
			"name":"table_aquarium_Baked",
			"rotation":[
				0.7071068286895752,
				0,
				0,
				0.7071068286895752
			],
			"translation":[
				-5.580193996429443,
				2.8281924724578857,
				9.162921905517578
			]
		}
	],
	"materials":[
		{
			"alphaMode":"BLEND",
			"doubleSided":true,
			"emissiveFactor":[
				1,
				1,
				1
			],
			"emissiveTexture":{
				"index":0
			},
			"name":"table_aquarium_Baked.005",
			"pbrMetallicRoughness":{
				"baseColorTexture":{
					"index":1
				},
				"metallicFactor":0,
				"roughnessFactor":0.5
			}
		}
	],
	"meshes":[
		{
			"name":"aquarium-glass.002_Cube.006",
			"primitives":[
				{
					"attributes":{
						"POSITION":0,
						"NORMAL":1,
						"TEXCOORD_0":2
					},
					"indices":3,
					"material":0
				}
			]
		}
	],
	"textures":[
		{
			"sampler":0,
			"source":0
		},
		{
			"sampler":0,
			"source":1
		}
	],
	"images":[
		{
			"mimeType":"image/png",
			"name":"table_aquarium_Bake1_PBR_Emission",
			"uri":"table_aquarium_Bake1_PBR_Emission.png"
		},
		{
			"mimeType":"image/png",
			"name":"table_aquarium_Bake1_PBR_Diffuse-table_aquarium_Bake1_PBR_Alpha",
			"uri":"table_aquarium_Bake1_PBR_Diffuse-table_aquarium_Bake1_PBR_Alpha.png"
		}
	],
	"accessors":[
		{
			"bufferView":0,
			"componentType":5126,
			"count":8255,
			"max":[
				3.052840232849121,
				1.845118522644043,
				2.8311479091644287
			],
			"min":[
				-1.6128947734832764,
				-1.5988101959228516,
				-0.7440797090530396
			],
			"type":"VEC3"
		},
		{
			"bufferView":1,
			"componentType":5126,
			"count":8255,
			"type":"VEC3"
		},
		{
			"bufferView":2,
			"componentType":5126,
			"count":8255,
			"type":"VEC2"
		},
		{
			"bufferView":3,
			"componentType":5123,
			"count":20760,
			"type":"SCALAR"
		}
	],
	"bufferViews":[
		{
			"buffer":0,
			"byteLength":99060,
			"byteOffset":0,
			"target":34962
		},
		{
			"buffer":0,
			"byteLength":99060,
			"byteOffset":99060,
			"target":34962
		},
		{
			"buffer":0,
			"byteLength":66040,
			"byteOffset":198120,
			"target":34962
		},
		{
			"buffer":0,
			"byteLength":41520,
			"byteOffset":264160,
			"target":34963
		}
	],
	"samplers":[
		{
			"magFilter":9729,
			"minFilter":9987
		}
	],
	"buffers":[
		{
			"byteLength":305680,
			"uri":"table_aquarium.bin"
		}
	]
}
