{
	"asset":{
		"generator":"Khronos glTF Blender I/O v4.1.63",
		"version":"2.0"
	},
	"scene":0,
	"scenes":[
		{
			"name":"Scene",
			"nodes":[
				0
			]
		}
	],
	"nodes":[
		{
			"mesh":0,
			"name":"table_aquarium",
			"translation":[
				-6.427217483520508,
				0.06904315948486328,
				4.31760311126709
			]
		}
	],
	"materials":[
		{
			"alphaMode":"BLEND",
			"doubleSided":true,
			"emissiveFactor":[
				1,
				1,
				1
			],
			"emissiveTexture":{
				"index":0
			},
			"name":"table_aquarium_Baked.005",
			"pbrMetallicRoughness":{
				"baseColorTexture":{
					"index":1
				},
				"metallicFactor":0,
				"roughnessFactor":0.5
			}
		}
	],
	"meshes":[
		{
			"name":"aquarium-glass.002_Cube.006",
			"primitives":[
				{
					"attributes":{
						"POSITION":0,
						"NORMAL":1,
						"TEXCOORD_0":2
					},
					"indices":3,
					"material":0
				}
			]
		}
	],
	"textures":[
		{
			"sampler":0,
			"source":0
		},
		{
			"sampler":0,
			"source":1
		}
	],
	"images":[
		{
			"mimeType":"image/png",
			"name":"table_aquarium_Bake1_PBR_Emission",
			"uri":"textures/table_aquarium_Bake1_PBR_Emission.png"
		},
		{
			"mimeType":"image/png",
			"name":"table_aquarium-table_aquarium_alpha",
			"uri":"textures/table_aquarium-table_aquarium_alpha.png"
		}
	],
	"accessors":[
		{
			"bufferView":0,
			"componentType":5126,
			"count":8259,
			"max":[
				3.8998637199401855,
				3.5032291412353516,
				6.690437316894531
			],
			"min":[
				-0.7658710479736328,
				-0.07199882715940475,
				3.2465085983276367
			],
			"type":"VEC3"
		},
		{
			"bufferView":1,
			"componentType":5126,
			"count":8259,
			"type":"VEC3"
		},
		{
			"bufferView":2,
			"componentType":5126,
			"count":8259,
			"type":"VEC2"
		},
		{
			"bufferView":3,
			"componentType":5123,
			"count":20760,
			"type":"SCALAR"
		}
	],
	"bufferViews":[
		{
			"buffer":0,
			"byteLength":99108,
			"byteOffset":0,
			"target":34962
		},
		{
			"buffer":0,
			"byteLength":99108,
			"byteOffset":99108,
			"target":34962
		},
		{
			"buffer":0,
			"byteLength":66072,
			"byteOffset":198216,
			"target":34962
		},
		{
			"buffer":0,
			"byteLength":41520,
			"byteOffset":264288,
			"target":34963
		}
	],
	"samplers":[
		{
			"magFilter":9729,
			"minFilter":9987
		}
	],
	"buffers":[
		{
			"byteLength":305808,
			"uri":"aquarium.bin"
		}
	]
}
