{
	"asset":{
		"generator":"Khronos glTF Blender I/O v4.1.63",
		"version":"2.0"
	},
	"scene":0,
	"scenes":[
		{
			"name":"Scene",
			"nodes":[
				0
			]
		}
	],
	"nodes":[
		{
			"mesh":0,
			"name":"wall_floor",
			"translation":[
				-6.427217483520508,
				0.06904315948486328,
				4.31760311126709
			]
		}
	],
	"materials":[
		{
			"doubleSided":true,
			"emissiveFactor":[
				1,
				1,
				1
			],
			"emissiveTexture":{
				"index":0
			},
			"name":"tatami.001_Baked_Baked",
			"pbrMetallicRoughness":{
				"baseColorTexture":{
					"index":1
				},
				"metallicFactor":0,
				"roughnessFactor":0.5
			}
		}
	],
	"meshes":[
		{
			"name":"Plane.003",
			"primitives":[
				{
					"attributes":{
						"POSITION":0,
						"NORMAL":1,
						"TEXCOORD_0":2
					},
					"indices":3,
					"material":0
				}
			]
		}
	],
	"textures":[
		{
			"sampler":0,
			"source":0
		},
		{
			"sampler":0,
			"source":1
		}
	],
	"images":[
		{
			"mimeType":"image/png",
			"name":"tatami.001_Baked_Bake1_PBR_Emission",
			"uri":"textures/tatami_001_Baked_Bake1_PBR_Emission.png"
		},
		{
			"mimeType":"image/png",
			"name":"tatami.001_Baked_Bake1_PBR_Diffuse",
			"uri":"textures/tatami_001_Baked_Bake1_PBR_Diffuse.png"
		}
	],
	"accessors":[
		{
			"bufferView":0,
			"componentType":5126,
			"count":15314,
			"max":[
				10.90072250366211,
				16.27729606628418,
				9.689705848693848
			],
			"min":[
				-11.186117172241211,
				-0.49364566802978516,
				-9.775242805480957
			],
			"type":"VEC3"
		},
		{
			"bufferView":1,
			"componentType":5126,
			"count":15314,
			"type":"VEC3"
		},
		{
			"bufferView":2,
			"componentType":5126,
			"count":15314,
			"type":"VEC2"
		},
		{
			"bufferView":3,
			"componentType":5123,
			"count":25680,
			"type":"SCALAR"
		}
	],
	"bufferViews":[
		{
			"buffer":0,
			"byteLength":183768,
			"byteOffset":0,
			"target":34962
		},
		{
			"buffer":0,
			"byteLength":183768,
			"byteOffset":183768,
			"target":34962
		},
		{
			"buffer":0,
			"byteLength":122512,
			"byteOffset":367536,
			"target":34962
		},
		{
			"buffer":0,
			"byteLength":51360,
			"byteOffset":490048,
			"target":34963
		}
	],
	"samplers":[
		{
			"magFilter":9729,
			"minFilter":9987
		}
	],
	"buffers":[
		{
			"byteLength":541408,
			"uri":"wall_floor.bin"
		}
	]
}
