{
	"asset":{
		"generator":"Khronos glTF Blender I/O v4.4.56",
		"version":"2.0"
	},
	"scene":0,
	"scenes":[
		{
			"name":"Scene",
			"nodes":[
				0
			]
		}
	],
	"nodes":[
		{
			"mesh":0,
			"name":"wall_and_floor"
		}
	],
	"materials":[
		{
			"doubleSided":true,
			"emissiveFactor":[
				1,
				1,
				1
			],
			"emissiveTexture":{
				"index":0
			},
			"name":"tatami.001_Baked.001",
			"pbrMetallicRoughness":{
				"baseColorTexture":{
					"index":1
				},
				"metallicFactor":0,
				"roughnessFactor":0.5
			}
		}
	],
	"meshes":[
		{
			"name":"Plane.002",
			"primitives":[
				{
					"attributes":{
						"POSITION":0,
						"NORMAL":1,
						"TEXCOORD_0":2
					},
					"indices":3,
					"material":0
				}
			]
		}
	],
	"textures":[
		{
			"sampler":0,
			"source":0
		},
		{
			"sampler":0,
			"source":1
		}
	],
	"images":[
		{
			"mimeType":"image/png",
			"name":"tatami.001_Baked_Bake1_PBR_Emission",
			"uri":"tatami_001_Baked_Bake1_PBR_Emission.png"
		},
		{
			"mimeType":"image/png",
			"name":"tatami.001_Bake1_PBR_Diffuse",
			"uri":"tatami_001_Bake1_PBR_Diffuse.png"
		}
	],
	"accessors":[
		{
			"bufferView":0,
			"componentType":5126,
			"count":12998,
			"max":[
				4.473505020141602,
				16.34634017944336,
				14.007308959960938
			],
			"min":[
				-17.61333465576172,
				-0.4246025085449219,
				-5.457639694213867
			],
			"type":"VEC3"
		},
		{
			"bufferView":1,
			"componentType":5126,
			"count":12998,
			"type":"VEC3"
		},
		{
			"bufferView":2,
			"componentType":5126,
			"count":12998,
			"type":"VEC2"
		},
		{
			"bufferView":3,
			"componentType":5123,
			"count":22212,
			"type":"SCALAR"
		}
	],
	"bufferViews":[
		{
			"buffer":0,
			"byteLength":155976,
			"byteOffset":0,
			"target":34962
		},
		{
			"buffer":0,
			"byteLength":155976,
			"byteOffset":155976,
			"target":34962
		},
		{
			"buffer":0,
			"byteLength":103984,
			"byteOffset":311952,
			"target":34962
		},
		{
			"buffer":0,
			"byteLength":44424,
			"byteOffset":415936,
			"target":34963
		}
	],
	"samplers":[
		{
			"magFilter":9729,
			"minFilter":9987
		}
	],
	"buffers":[
		{
			"byteLength":460360,
			"uri":"wall-floor.bin"
		}
	]
}
